<svg width="743" height="1128" viewBox="0 0 743 1128" fill="none" xmlns="http://www.w3.org/2000/svg">
<g clip-path="url(#clip0)">
<path d="M38.2 863.9L170.7 561.4C177.8 539.4 195.8 495.4 211.4 495.4C227 495.4 279.1 466.2 303.2 451.6C297.4 377.7 286.3 219.8 288 179.8C290.2 129.7 324.9 38.2 344.5 21.7C364.1 5.09997 408.1 -3.40003 427.7 5.69997C447.3 14.8 484.2 56.3 536.9 92.7C579 121.8 624.3 373.3 641.7 495.3C651.8 504.4 677.3 526.2 698.2 540.8C719.1 555.4 720.3 606.4 718.3 630L685.1 863.8C674.2 903.3 647.8 991.6 629.2 1029.8C611.8 1029.8 618.3 1075.3 611.8 1093.5C606.6 1108.1 573.4 1099.6 557.5 1093.5L579.2 1114C579.2 1114 459.3 1130.8 387.4 1126.8C335.7 1123.9 254.9 1111 192.2 1093C144 1079.2 170.9 1029.8 170.9 1029.8C142.7 1031.3 81 1033.4 60.1 1029.8C34 1025.3 18.8 963.8 14.5 934.2C10.9 910.8 28.8 877.6 38.2 863.9Z" fill="white"/>
<path d="M235.7 690.2C234.6 676.9 218.9 685.6 211.2 691.6C210.6 683.7 205.4 668.6 189.2 671.4C173 674.2 191.2 692 202.3 700.5C191.8 697.5 171.8 695.8 176.4 712.2C180.9 728.6 195.6 714.3 202.3 705.1C202.2 712.7 204.3 727.6 213.7 727.1C223.1 726.5 215.9 712.2 211.2 705.1C219.8 705.7 236.8 703.6 235.7 690.2Z" fill="#60EFDE"/>
<path d="M171.4 751.6C170.1 751.6 168.8 751 168 749.8C166.7 748 167.2 745.5 169 744.2C173 741.5 177.6 738.1 178.8 737.2C179.8 735.8 182.5 729.4 184.4 724.1C185.2 722 187.4 721.1 189.5 721.7C191.6 722.5 192.5 724.7 191.9 726.8C188.5 735.8 186 741.2 184.5 742.7C182.7 744.5 175.7 749.4 173.6 750.9C173 751.5 172.2 751.6 171.4 751.6Z" fill="#330033"/>
<path d="M206.3 706.4C209.1 707.8 211.6 710.6 213.1 713.4C214.7 716.6 215.4 720 215.1 723.4C214.9 725.3 214.7 726.5 214 728.3C213.7 728.9 213.5 730 212.8 730.4C212.8 730.4 212.9 730.4 213 730.4C212.6 730.5 212.1 730.1 211.8 729.9C208.1 727.9 205.3 724.6 203.9 720.6C202.4 716.3 202.9 711 205.3 706.9C206 705.8 206 704.3 205.1 703.3C204.3 702.3 202.7 701.9 201.5 702.5C196.2 705.4 190.8 707.9 185.2 710.2C184 710.7 182.6 711.2 181.4 711.6C180.6 711.8 179.9 712.2 179.1 712.4C179.1 712.4 178.2 712.6 178.3 712.6C177.8 712.5 177 711.2 176.7 710.7C176 709.5 175.3 708.2 174.9 706.8C174.5 705.7 174.3 704.4 174.1 703.2C174 702.4 173.9 701.4 174.3 700.7C174.8 699.9 175.7 699.5 176.4 699.1C176.9 698.8 177.2 698.6 177.7 698.5C178 698.3 178.2 698.3 178.5 698.2C178.6 698.2 179.4 697.8 179 698C182.7 696.8 186.5 696.9 190.1 698C192.4 698.7 193.9 699.5 195.9 700.9C197.4 702 199.1 703.8 200 705.2C201.8 704.4 203.6 703.4 205.4 702.6C201.6 696.6 195.9 692.5 191.8 686.7C190 684.2 188.5 681.2 188.3 678.1C188.1 675.5 188.9 673.5 190.4 671.6C190.1 672 190.7 671.2 190.7 671.2C190.9 671.1 191 670.8 191.2 670.7C191.6 670.3 192.1 669.9 192.5 669.6C192 669.9 192.9 669.4 192.9 669.4C193.2 669.2 193.5 669.1 193.7 668.9C194 668.7 194.3 668.7 194.5 668.5C194.7 668.5 194.9 668.3 195.1 668.3C194.8 668.4 194.9 668.3 195.2 668.3C197.4 667.7 199.3 667.6 201.3 668.3C205.8 669.8 208.6 674.3 209.1 679.2C209.2 680.2 209.2 681.7 208.8 683C208.8 683.3 208.3 684.5 208.1 685.2C207.8 686 207.5 686.6 207.1 687.4C205.3 690.5 202.9 693.1 200.5 695.6C199.4 696.8 199 698.5 200.2 699.8C201.2 701 203.2 701.2 204.4 700.1C209.8 695.7 215.3 691.2 221.3 687.7C224.2 686 227.3 684.6 230.6 683.6C232.9 683 236.4 681.7 238.1 683.5C239.9 685.3 240.1 688 239.7 690.3C239.4 692.6 238.2 695 236.6 697C232.7 701.9 225.8 703.5 219.8 704C216.6 704.3 213.1 704.3 210 703.7C209.3 703.5 207.3 703 206.7 702.6C206.5 702.4 206.1 702.3 205.9 702.1C205.8 702 205 701.4 205.2 701.6C204.7 701.1 204.3 700.5 204 700.2C203.2 698.8 201.5 698.1 200 698.8C198.6 699.5 197.8 701.4 198.6 702.8C202.2 709.2 209.8 710.3 216.5 710.1C224.6 710 233.5 708.7 239.5 702.9C244.8 697.9 247.6 690 244.8 683.1C243.3 679.2 239.8 676.6 235.7 676.7C231.7 676.8 227.4 678.2 223.8 679.8C215.2 683.5 207.8 689.6 200.6 695.4C201.9 696.9 203.2 698.5 204.5 700C209.5 694.7 215 688.6 215.2 680.8C215.4 674.3 212.3 667.3 206.5 663.9C200.8 660.5 193.8 661.3 188.4 665C185.9 666.8 183.8 669.4 182.9 672.3C181.7 676.2 182.2 680.4 183.7 684C185.4 688.3 188.3 691.8 191.3 695C194.3 698.1 197.6 701.1 199.8 704.8C200.7 706.2 202.2 707 203.8 706.2C205.1 705.6 206.1 703.5 205.2 702.2C199.8 693.1 188.1 688.6 177.8 691.7C175.1 692.5 172.3 693.7 170.3 695.7C167.7 698.4 167.7 702 168.4 705.4C169.1 708.9 170.6 712.2 172.7 715.1C173.6 716.4 174.9 717.5 176.4 718C178.3 718.6 180.2 718 182.1 717.4C189.7 714.8 197 711.6 204 707.7C202.7 706.2 201.5 704.8 200.2 703.3C197.2 708.5 196 714.8 197.6 720.8C199.1 726.4 202.7 731.4 207.7 734.4C210.6 736.1 214 737.3 216.8 734.6C218.7 732.7 219.7 730 220.4 727.5C221.6 722.5 221.1 717.4 219.2 712.7C217.1 707.5 213.2 703.2 208.2 700.7C206.7 700 204.8 701.1 204.4 702.5C203.9 704.2 204.9 705.7 206.3 706.4Z" fill="#330033"/>
<path d="M574.7 421.8C576.3 419.3 577.4 417.2 577.8 415.7C578.8 412.2 581.5 408.5 585.2 404.8C580.7 402.1 576.2 399.7 571.8 397.5C571.9 400 572 402.5 572.1 405.1C572.4 411.2 573.3 416.7 574.7 421.8Z" fill="#FFE9C2"/>
<path d="M573.4 389C573.7 389 574.2 389 574.5 389.2C573.5 388.5 572.6 387.8 571.7 387.2C571.7 387.5 571.7 387.9 571.7 388.2C572.3 388.5 572.9 388.8 573.4 389Z" fill="#FFE9C2"/>
<path d="M339.3 385.5C339.1 384.2 339.8 382.8 340.7 382C341.8 381.2 343.1 380.9 344.4 381.4C350.8 383.5 357.5 385.5 364 387.4C366 383.4 368 379.3 369.9 375.1C349.3 356.6 325.7 334.8 323.5 329C322.1 325.6 324.1 323.7 324.6 323.2C327.8 320.6 330.8 323 341.1 330.4C346.9 334.6 360.9 345 366.9 346.3C366.1 345.5 365 344.7 364 343.9C356.6 337.7 343 326 328.6 302.4C315.3 280.8 301.6 235.1 292.6 189.5C291 192.9 289.2 196.2 287.5 199.8C270.1 233.4 274.9 252.5 281.1 276.4C283.7 286.5 286.5 297.9 288 311.3C292.5 352.9 321 363.5 322.1 364C323.2 364.3 324 365.1 324.5 366.2C325 367.3 325 368.4 324.5 369.4C324.3 369.6 319.1 381.7 311.9 397.9C312.1 397.9 312.4 397.7 312.5 397.7C325.5 393.5 332.5 393.5 335.2 397.7C337.3 400.8 336 404.6 328.3 416.6L341.7 419C340.6 399.8 339.3 385.8 339.3 385.5Z" fill="#FFE9C2"/>
<path d="M378.5 333C372.7 307.1 334.7 273.5 308.4 222.7C316.4 254.4 326.1 282.7 335.4 297.8C349.2 320.2 362.1 331.4 369.2 337.4C374.3 341.7 377 344.1 376.6 347.8C376.1 351 373.1 352.6 372.1 353.1C367.5 355.5 360.6 352.9 352.1 347.5C358.6 353.6 365.9 360.3 373.2 366.8C377.9 354.5 380.6 342.3 378.5 333Z" fill="#FFE9C2"/>
<path d="M681.3 475.9C677.7 472.9 673.6 469.5 669 465.8C664 462.4 646.8 450.3 629.7 437.9C613.2 425.9 603.3 418 597.4 412.6C595.6 411.5 593.9 410.4 592.3 409.4C588.8 412.6 586.2 415.8 585.4 418.2C584.4 421.4 581.8 425.9 578.2 431.2C598 472.6 659.6 476 681.3 475.9Z" fill="#FFE9C2"/>
<path d="M641.5 250.9C641.5 255.4 641.3 259.2 641.3 262C641.3 267.8 640.7 274 639.9 280.7C637.8 299.4 635.1 322.8 644.4 355.3C644.9 357.2 645.7 359.1 646.5 361.2C650 370.7 655 383.8 651.1 416.5L675.9 461.5C679.9 464.8 683.8 468 687.7 471.3C680.7 444.4 644.1 300.9 644.1 238.6C644.1 230.8 643.2 221.7 641.6 211.7C641.9 226.6 641.7 240.6 641.5 250.9Z" fill="#FFE9C2"/>
<path d="M316 369.8C306.7 365.2 284.5 349.9 280.5 312.1C279.1 299.3 276.5 288.6 273.8 278.3C267.6 253.8 262.1 232.5 280.8 196.1C284.3 189.4 287.5 182.6 290.6 176.1C284.7 141.3 282 107.7 285 86.2C278 113.5 271.8 143.9 261.8 174.5C235.5 254.8 282.5 384.5 290.9 406.7C294.7 404.9 298.3 403.3 301.8 401.8C308 387.9 313.5 375.7 316 369.8Z" fill="#FFE9C2"/>
<path d="M581.5 384.9C583.6 386.3 585.7 387.8 587.4 389.1C587.7 386.7 587.4 380.9 587.2 378.8C586.6 369.9 580.6 356.2 573 342.8C572.3 353.6 571.7 365.1 571.6 377.8C575.1 380.4 578.9 383.1 581.5 384.9Z" fill="#FFE9C2"/>
<path d="M401.1 119.8C396.7 120.6 391.3 121.6 383.8 123.1C382.6 123.4 381.4 123.6 380.3 123.8C378.7 131.2 376.9 136 376.9 136C376.9 136 380 127.7 401.1 119.8Z" fill="#FFE9C2"/>
<path d="M442.1 69.3C441.5 70.1 440.7 71.2 439.5 72.8L428.9 112.5C433.1 111.7 437.6 111 442.5 110.3C443.2 110.2 443.9 110.1 444.5 110C444.1 106 443.1 95.2 443.1 82.4C443.1 75 442.6 71.2 442.1 69.3Z" fill="#FFE9C2"/>
<path d="M440.8 0C437.8 7.5 433.2 18.4 427.4 29.2C460.8 41.7 488.4 61.5 512.4 81.8C513.6 81.2 514.8 80.5 516.2 79.9C541.2 67.4 554.7 93.1 563.1 132C589.3 163.3 612.8 200.7 602.1 213C595.9 220.2 596.7 223.1 602.4 239.4C604.8 246 607.7 254.1 610.9 265.2C621.5 301.2 627.9 369.8 621.8 381.8C619.2 386.9 612.2 392.5 604.2 398.9C602.4 400.2 600.7 401.6 598.9 403.1C600 404 601 404.9 602.1 405.9C620.3 417.6 640 432.3 659.7 447.9L643.7 418.9C643.2 418.1 643.1 417.3 643.2 416.5C647 384.8 642.7 373.1 639.2 363.6C638.4 361.4 637.6 359.3 637 357.2C627.2 323.1 630.1 297.9 632.2 279.5C633 272.8 633.6 266.8 633.6 261.6C633.6 258.9 633.6 255 633.8 250.4C634.2 229.2 634.7 191.5 631 164.1C628.1 153.7 624.8 142.9 621.1 132C619 128.2 616.7 124.4 614.7 120.8C604.4 103.3 593.6 85.2 590.8 53.6C581.9 33.9 572.8 15.5 564 0H440.8Z" fill="#FFE9C2"/>
<path d="M307.4 407.5C306.7 409.1 305.9 410.7 305.2 412.3L319.6 414.9C323.1 409.7 326.2 404.7 327.7 401.8C324.1 402 317.3 403.5 307.4 407.5Z" fill="#FFE9C2"/>
<path d="M375.9 67.9C383 63.3 389.6 59.7 394.5 57.7C401.4 54.8 409.1 45.2 415.8 33.7C411.6 32.4 407.3 31.1 403 30C386.8 26 385.6 17.2 386 12.2C386.2 10.2 387.3 6 391.8 0H330.5C329.9 0.4 329.4 0.8 328.9 1.2C314.5 22.5 301.9 51.8 294.3 78.5C289.8 93.8 290.6 121 294.7 151.5C301.6 108.8 330.1 70.7 336.9 55.9C345.2 38 365.4 47.5 375.9 67.9Z" fill="#FFE9C2"/>
<path d="M349.2 413C352.1 408.5 356.1 401.9 360.3 394.2C356.4 393 352.2 391.7 347.7 390.3C348.1 395.4 348.7 403.4 349.2 413Z" fill="#FFE9C2"/>
<path d="M397.7 65.1C392.8 67.1 386.2 70.6 379.1 75.3C379.5 76.3 379.8 77.3 380.1 78.4C383.8 91.1 383.4 104.4 381.9 115.1C382.1 115.1 382.3 115 382.4 115C403.4 110.8 408.6 110.2 419 109.1C419.8 108.9 420.6 108.9 421.6 108.8L432.2 69.7C432.4 69.4 432.5 68.9 432.7 68.6C435.9 63.5 439.9 58.3 444.9 59.8C449.7 61.1 451.5 67.2 451.5 82.1C451.5 92.7 452.3 102 452.6 106.8C461 106.3 471.8 104.4 482.6 101.9C489.4 98.5 491.2 94.1 505.1 85.9C479 64.1 453.2 47.1 423.8 36.4C416.1 49.5 407.2 61.2 397.7 65.1Z" fill="#FFE9C2"/>
<path d="M570.7 177.9C571.7 178.4 572.5 179.3 572.6 180.5C572.8 181.6 572.6 182.7 572.1 183.7C571.9 184 571.7 184.3 571.4 184.6C572.8 196.1 574.1 207.9 575.3 219.4C576.8 233.8 577.5 246.5 577.7 258.4C584.7 271 584.7 281.8 582.4 289.9C580.6 296.4 577.8 307.1 574.9 318.7C574.6 322.1 574.3 325.4 574.1 328.8C585.1 346.4 594.5 365.9 595.5 378.2C595.9 385.7 596 391 593.8 394.3C594.3 394.9 594.9 395.4 595.2 396.1C596.5 395 597.9 393.9 599.4 392.7C605.8 387.6 613 381.8 614.8 378.3C618.6 370.6 614.8 306.9 603.3 267.5C600.1 256.6 597.2 248.6 595 242C589.1 225.3 586.7 218.5 596.1 207.6C598.2 205.2 597.4 193.7 579.5 166.6C575.5 160.6 571.1 154.5 566.3 148.4C567.9 157.8 569.3 167.7 570.6 177.7C570.6 177.8 570.7 177.8 570.7 177.9Z" fill="#FFE9C2"/>
<path d="M394.1 13.2C393.9 14.6 393.3 19.3 405 22.2C410.1 23.5 415.1 24.9 419.9 26.5C424.8 17.4 429.2 7.80002 432.5 -0.0999756H402.6C397.6 5.10002 394.6 9.60002 394.1 13.2Z" fill="#FFE9C2"/>
<path d="M425.1 116.8C426.7 116.6 428 115.5 428.5 113.9L428.9 112.6C417.3 114.8 408.2 117.3 401.1 119.9C408.8 118.6 413.3 118.1 419.8 117.4C421.4 117.2 423.2 117 425.1 116.8Z" fill="#330033"/>
<path d="M590.4 50.3C590.5 51.4 590.6 52.5 590.7 53.6C601.8 78.6 612.3 105.7 621.1 132C622.3 134.1 623.4 136.2 624.5 138.4C627.5 144.4 629.5 153.5 631 164.1C635.8 181.2 639.5 197.3 641.8 211.6C641.3 182.7 639.1 150.4 631.6 135.2C628.4 128.8 624.9 122.9 621.5 117.1C611 99 600.9 81.8 598.5 50.1C597.1 34 590.1 16.2 579.5 0H570.4C581.9 16.3 589.3 34.7 590.4 50.3Z" fill="#330033"/>
<path d="M537.7 104.7C535.9 100 534.2 95.7 532.1 91.7C531.3 89.9 529.2 89 527.3 89.6C527.3 89.6 525.5 90.2 522.8 91C519.4 88 515.9 84.9 512.3 81.9C509.6 83.3 507.2 84.7 505.1 85.9C508.1 88.4 511.2 91 514.2 93.7C505.7 96.2 494.2 99.3 482.6 101.9C476.9 104.8 467.5 106.9 444.5 110.1C444.6 111.1 444.7 111.7 444.7 111.8C445 113.9 446.6 115.3 448.7 115.3C468.5 115.3 504.4 105.2 521 100.2C523.1 102.1 525.4 104 527.6 106.1C528.8 107 529.9 108 531 109.1C533.5 116.2 535.8 123.5 538 130.9C544.6 152.3 550.8 172.7 562.8 182.3C561.2 183.8 559.3 185.5 557.4 187.3C547.9 195.6 535.1 207 535.6 219.5C535.9 225.6 539.3 231.2 545.7 236C562.1 248.1 580.3 267 574.7 287.7C572.8 294.6 569.9 305.8 566.9 317.7C559.2 306.5 551.4 297 546.1 292.2C535.7 282.9 518.1 298.9 496 319.1C480.8 333.1 463.4 348.9 451.2 352.3C427.3 358.9 414.2 345 388.3 317.4C385.6 314.5 382.7 311.4 379.8 308.4C350 277.2 338 167.5 336.1 131.5C335.3 117.1 346.8 101.8 360.6 89.5C363.2 95.5 360.1 111 356.8 121.2C356.5 122.3 356.6 123.4 357.1 124.4C358.6 127.1 361.8 126.8 364.8 126.5C368.1 126.1 373.3 125.2 380.3 123.8C380.9 121.2 381.4 118.2 381.9 115C374 116.5 369.2 117.3 366.2 117.8C368.6 108.9 371.8 92.5 366.7 84.2C370.9 80.9 375.1 77.9 379.1 75.2C378.2 72.6 377.1 70.1 375.9 67.8C370.8 71.2 365.4 75.1 360.1 79.5C356.7 78.7 352.7 79.5 347.9 81.7C327.4 91.3 315 119.8 300.4 152.8C298.9 156.1 297.6 159.1 296.2 162.3C295.6 158.7 295.1 155.1 294.7 151.5C291.9 169 292.7 187.2 300.1 204.9C302.7 211.1 305.5 217 308.4 222.7C304.6 207.7 301.3 192 298.6 176.5C301.8 169.6 304.8 162.7 307.7 156C320.6 126.5 332 101 348 90.9C336.2 103.4 327.4 117.8 328.2 132.1C328.4 133.5 336.7 274.7 374.6 313.9C377.5 316.9 380.2 319.8 382.9 322.7C409.1 350.7 425.1 367.5 453.6 359.7C467.7 355.9 485 340 501.6 324.8C515.9 311.6 535.8 293.5 540.9 298C546.6 303.3 555.8 314.9 564.4 328C560.2 344.7 556.4 360.7 555.6 366.6C554.6 373.9 562.6 380.7 571.7 387.3C571.7 384.1 571.7 380.9 571.7 377.8C567 374.1 562.9 370.1 563.2 367.9C564 363.2 566.7 351.2 570.1 337.6C571.1 339.3 572.1 341 573.1 342.8C573.4 338.1 573.8 333.4 574.1 328.9C573.7 328.2 573.3 327.6 572.9 326.9C573.6 324.2 574.3 321.4 575 318.7C576.6 299.2 578.2 280.4 577.8 258.3C572.8 249.4 564.4 239.7 550.7 229.4C546.2 226 544 222.7 543.8 219C543.4 210.2 554.6 200.3 562.8 193.1C566.6 189.8 569.6 187 571.5 184.5C571.2 182.2 570.9 179.9 570.6 177.7C558.8 171.2 552.1 149.3 545.7 128.3C544.9 126.2 544.2 123.9 543.6 121.7C551.3 130.1 559.1 139.2 566.2 148.4C565.2 142.7 564.2 137.2 563 132C554.6 121.9 545.8 112.4 537.7 104.7Z" fill="#330033"/>
<path d="M681.3 475.9C682.4 476.8 683.4 477.7 684.4 478.5L689.4 482.7C720.9 508.8 749.7 545.6 726.3 682.4C721.7 709.3 717.5 735.9 713.5 761.5C697.9 860.6 684.4 946.3 658.2 985.1C646.6 1002.1 643.3 1016.3 640.4 1027.7C635.1 1049.2 633 1058 578.5 1057C575.8 1056.8 573.1 1056.8 570.5 1056.8C552.4 1047.3 529.1 1036 510.3 1029.9C488.7 1022.7 425.2 1010.8 406.2 1007.3C390.6 1004.4 344 996 327.7 994.6C329.1 987.7 334.3 971.4 338.9 956.3C360.9 950.7 389.8 939.4 405 933.2C446.8 916.2 508.1 922.3 508.7 922.3C510.5 922.4 512.4 921.2 512.9 919.4C514.2 915 532.9 853.2 548.2 799.6C549.6 798.7 551.1 797.9 552.5 796.9C561 791.8 568.5 787.9 575.1 784.4C599.3 771.8 611.5 765.5 607.3 733.8C605.6 720.4 601.1 709 597.1 698.9C595.1 694.4 593.5 690.1 592.1 685.9C595.8 681.5 599.7 676.6 603.5 672C623.5 647.5 642.3 624.4 644.1 610C647.3 584 644.3 564.8 644.1 564C643.8 562.4 642.5 561.1 640.9 560.8C639.3 560.5 637.5 561.2 636.7 562.6C636.5 563 607.7 609.5 588.7 642.8C579.6 658.7 579.9 671.8 583.3 684.3C571.3 699.5 562.4 712.5 561.1 721.1C559.8 729.4 551.3 760.1 541.4 794.9C518.5 811.1 506.5 831.6 498.2 845.7C494.1 852.6 490.5 858.7 487.5 860.9C481.6 865.3 467.9 861.9 445.3 856.3C433.2 853.3 418.2 849.6 399.6 845.9C383.1 842.7 360.2 841.7 331.9 842.7C313.2 843.1 292.7 844.6 271.6 846.5C274.5 839.6 276.1 835.3 276.1 835.1C276.6 834 276.4 832.5 275.6 831.4C274.8 830.3 273.6 829.8 272.2 829.8L209 832.8C208.2 817.8 203.6 766.4 178.8 748.9L173.4 745.1C145.8 725.4 117 704.9 97.3 709.9C89.9 711.7 85.5 715 83.7 720C83.1 721.9 82.9 723.8 83.1 725.6C81.7 725.1 80.2 724.5 78.8 724C95 689.9 107.6 665.8 111 662C115.3 657.2 122.8 637.8 136.9 601.1C156.9 549.1 187.1 470.4 204.7 457.6C221.9 445.2 235.7 439.9 250.1 434.1C259.2 430.6 268.7 426.7 279.4 421.1C285.7 417.9 291.3 415 296.4 412.8C293.2 419.7 290 426.8 286.8 433.5C271.9 465 285.9 506.9 286.6 508.6C287.3 510.3 289 511.5 290.8 511.3C292.5 511 294 509.6 294.3 507.8C294.5 506.9 297.5 483.5 297.5 468.9C297.5 462.1 311.1 442 320.2 428.5C323.4 423.8 326 419.9 328.2 416.6L319.6 415C317.7 417.8 315.8 420.7 313.9 423.4C299.8 444.3 289.7 459.8 289.7 468.3C289.7 472.1 289.4 477 289.1 481.6C287.4 467.9 287.4 450.7 294.1 436.3C297.8 428.6 301.6 420.3 305.2 412.4L292.2 410C292.2 410 291.7 408.8 290.9 406.7C286.1 408.9 281.2 411.3 276.2 414C265.9 419.5 256.7 423.2 247.7 426.7C232.8 432.6 218.6 438.1 200.5 451.2C180.8 465.3 152.5 539.1 129.8 598.4C118.9 626.5 108.8 652.9 105.3 656.9C101.1 661.6 87.7 687.8 71.5 721.8C63.8 719.7 56.2 718.8 52 721.5C49.6 723 48.3 725.4 48.3 728.4C48.3 735.5 51.4 741.7 54.4 746.2C45.9 746.1 36.8 747 34.1 751.5C33.3 752.9 32.3 755.6 34.7 759.3C36.6 762.1 41.8 767.3 48 773.2C46.8 775.7 45.7 778.1 44.6 780.7C41.1 780.1 40 781 39.2 781.5C37.6 782.6 36.8 784.5 37.3 786.6C37.6 788.1 38.4 790 39.5 792.4C19.7 838.2 2.59997 882 0.49997 899.1C-4.30003 939.6 24.3 979.8 43.5 995.5C60.5 1009.4 140.5 999.6 161.1 996.9C162.3 1003.9 165 1019.1 168.5 1033.4C172.2 1047.8 163.9 1073.3 161 1079.4H169.3C169.3 1079.4 181.4 1052 176.3 1031.5C171.5 1012.6 168.3 992 168.3 991.8C168 989.5 166 988.1 163.8 988.4C125.4 993.8 60.3 998.8 48.5 989.2C30.6 974.4 3.89997 937.3 8.39997 899.8C9.99997 885.9 23.1 850 44.2 801C52.7 815.4 66.9 835.3 76.5 846C79.1 848.9 78.3 851.2 75.4 855.8C73.6 858.7 71.4 862.4 73.6 865.9C76.6 870.5 83.5 872.3 134.2 868.1C156.9 866.2 181.2 863.6 204.7 861.2C223.1 859.3 241.5 857.4 259.7 855.6C254.2 867.9 246.6 883.7 237.6 898.8C235.1 902.8 232.8 906.3 230.9 909.5C216.5 932.4 214.4 937.3 224.3 976.9C231.5 1005.7 272.7 1013.1 316.4 1020.9C347.1 1026.4 378.9 1032.1 402.3 1045.1C422.3 1056.3 440 1062.5 459.4 1065.1C477.3 1067.5 495.2 1066.9 517.9 1065.9C532.6 1065.3 549 1064.6 568.4 1064.8C583.1 1072.5 594.8 1079.4 594.8 1079.4L609.4 1079.3C609.4 1079.3 591.3 1068.5 585.7 1065.5C637.1 1065.5 642.2 1054.3 648.1 1030.1C650.6 1019.4 654 1006 664.7 990.1C691.9 949.7 705.5 863.2 721.3 763.1C725.3 737.4 729.5 711 734.1 684.1C744.5 622.4 745.5 576.3 737 542.8C728.4 508.5 710.6 490.3 694.3 476.8L689.3 472.6C688.8 472.2 688.3 471.7 687.7 471.3C688.4 474.1 688.9 475.7 688.9 475.7C688.9 475.7 686.1 475.8 681.3 475.9ZM596.1 646.4C609.6 622.7 628.2 592.1 637.8 576.6C638.3 584.4 638.5 595.8 636.8 608.8C635.2 620.9 615.3 645.1 597.9 666.6C595.2 669.8 592.6 672.9 590.2 675.9C588.7 666.7 589.9 657.5 596.1 646.4ZM569.6 721.8C570.5 715.7 577.7 705 587 693C587.9 695.9 589 698.6 590.2 701.6C594.2 711.7 598.4 721.9 600 734.6C603.6 760.7 595.6 764.9 572.2 777.2C566.3 780.3 559.7 783.8 552.2 788.1C561.1 756.7 568.5 729.8 569.6 721.8ZM398.4 853.2C416.8 856.9 431.8 860.6 443.8 863.6C470.2 870.2 483.6 873.4 492.6 867C497 863.8 500.8 857.4 505.6 849.2C512.8 836.9 522.1 821.2 538.1 807.4C525 852.9 510.4 901.3 506.6 913.8C493 912.9 440.9 910 402.5 925.7C376.1 936.5 356.3 943.2 342.2 947.2C354.9 906.3 364 874.6 363.2 863.4C362.9 859 361.9 853 357.3 850.4C356.8 850.3 356.2 850 355.7 849.8C372.9 850 387.2 851.1 398.4 853.2ZM353.3 857.6C353.4 857.6 354.7 858.6 355.2 864.2C356.1 875.1 343 917.5 333.1 949.7C323.9 951.9 318.4 952.2 316.5 951.6C314.6 944.2 314.7 892.1 324.1 872.7C326 868.7 327.5 867.9 328.1 867.7C333.1 866.3 337.7 863.9 341.9 861.8C345.9 859.7 351.7 856.8 353.3 857.6ZM56.1 727.5C57.5 726.5 62 727 67.9 728.5C65.8 733 63.6 737.5 61.5 742.1C58.8 738.6 56.1 733.5 56.1 727.7V727.5V727.5ZM41.3 754.7C43.7 753.9 49.7 753.4 56.2 753.6C54.5 757.3 52.9 761 51.1 764.8C46.4 760.5 42.9 756.9 41.3 754.7ZM63.1 786.7C58.7 784.6 55 783.2 52.1 782.2C52.7 780.8 53.2 779.5 53.7 778.4C56.9 781.1 59.9 784 63.1 786.7ZM203.7 852.8C180.2 855.2 155.9 857.8 133.3 859.7C121.9 860.7 88.5 863.6 81 861.5C81.3 860.9 81.7 860.2 82.1 859.3C84.5 855.3 89.2 847.6 82.3 839.9C70.6 827.1 54.6 803.7 47.9 791.2C48.3 790.5 48.6 789.7 48.9 789.1C58 792.3 74.5 800.2 88.6 807.7C90.5 808.6 92.8 808.2 93.9 806.4C95 804.6 94.7 802.4 93.1 801.1C85.3 794.7 69.6 781.3 57.3 770.2C57.5 770.2 57.5 770 57.5 770C60 764.4 62.6 758.9 65 753.5C66 753.2 66.6 752.4 67.1 751.4C67.6 750.6 67.6 749.7 67.3 748.7C70.2 742.5 73.1 736.4 75.8 730.6C80 732.1 84.6 733.8 89.1 735.9C90.9 736.7 92.8 736.2 93.9 734.8C95 733.3 95 731.2 93.9 729.8C93 728.7 90.7 724.9 91.7 722C92.7 719.2 96.7 717.8 99.7 717C115.9 713 145.5 734 169.3 751L174.7 754.8C199.8 772.6 201.7 835.9 201.7 836.5C201.7 837.6 202.2 838.6 203 839.4C203.8 840.2 204.8 840.5 205.9 840.5L267 837.6C266.1 840.2 264.8 843.2 263.2 846.9C243.5 848.6 223.5 850.7 203.7 852.8ZM517.5 1057.7C473.3 1059.5 446.6 1060.6 406 1038C381.5 1024.4 349.1 1018.5 317.7 1012.9C276.6 1005.5 237.9 998.6 232 974.9C222.7 937.5 224.3 934.7 237.6 913.6C239.5 910.4 241.7 906.9 244.3 902.7C254.4 885.7 262.8 867.6 268.6 854.5C291.2 852.4 313 850.8 333 850.2C338.7 850.1 344.3 849.9 349.6 849.9C346.2 850.7 342.5 852.4 338.7 854.5C334.7 856.5 330.6 858.6 326.4 859.9C322.7 861 319.9 864.1 317.3 869.2C307.2 889.9 305.9 946.4 309.3 954.9C309.7 956.1 310.7 957.7 313.1 958.7C316.4 960.1 322.7 959.6 330.5 958.2C318.2 998.1 318.5 998.6 321.1 1001C322 1001.9 323.5 1002.4 324.9 1002.1C324.9 1002.1 324.9 1002.1 325.1 1002.1C336.6 1002.1 475.1 1026.1 508.4 1037.2C521.6 1041.7 538.1 1049.2 553 1056.6C539.9 1056.7 528.2 1057.2 517.5 1057.7ZM324.5 994.5C323.7 994.5 323.2 994.5 322.9 994.7C323.2 994.5 323.7 994.5 324 994.5C324.1 994.5 324.3 994.5 324.5 994.5Z" fill="#330033"/>
<path d="M522.5 381C505.7 389.5 489 392.7 478 394.8C467.2 396.9 461.9 397.9 460.6 402.5C459.5 406.4 462.9 409.2 464 410.2C471.5 416.7 488.4 412.6 515.3 405.6C531.8 401.3 548.9 396.8 560.9 396.8C564.8 396.8 568.1 396.9 571 397.1C571.3 397.2 571.6 397.4 571.8 397.5C571.7 394.3 571.7 391.2 571.6 388.1C551.5 378.7 534.4 375.1 522.5 381ZM552.2 389.5C540.5 390.8 526.6 394.5 513 398C497.5 402.2 476.4 407.6 470 404.9C472.4 404.2 475.9 403.6 479.1 402.9C490.6 400.7 507.8 397.3 525.6 388.5C532.2 385.2 541.5 386 552.2 389.5Z" fill="#330033"/>
<path d="M328.9 1.2C329.2 0.8 329.5 0.4 329.7 0H320.7C306.3 22.2 294.2 51.2 286.9 76.8C286.1 79.6 285.5 82.7 285 86.2C294.4 50 305.3 19.4 328.9 1.2Z" fill="#330033"/>
<path d="M364 387.4C362.8 389.8 361.6 392.1 360.3 394.3C405.3 408 406.8 405.4 408.3 402.7C408.7 401.9 409.9 399.2 406.5 396.3C400.5 391.2 387.1 379.5 373.2 366.9C372.2 369.6 371.1 372.4 369.9 375.1C378.8 383.1 387.2 390.4 393.1 395.5C385.6 393.6 375.1 390.7 364 387.4Z" fill="#330033"/>
<path d="M537.8 477.9C533.8 488.8 530.6 503.2 528.5 512.8C513.6 487.5 474 423.3 451.4 417.7L447.4 416.7C434.1 413.4 425.9 411.3 419.7 415.3C414.1 419 411.7 426.5 409.8 436.9C404.8 463.3 389.8 504 378.1 528.8C375.2 534.9 372.7 541 370.6 547.1C359.7 523.5 349.6 498.7 350.4 479.5C351.3 457.3 350.3 432 349.2 413.1C346.6 417.2 344.9 419.6 344.9 419.6L341.6 419C342.6 437.1 343.3 459.7 342.5 479.5C341.6 502.7 354.5 531.9 367 558.6C361.2 577.5 358.2 596.2 355.3 613.5C354 621.3 353.1 628.7 352.1 635.9C351.6 640.1 351 644.1 350.5 647.9C340.9 654.6 331.7 662 325.5 671.1C314 688.1 318.1 699.3 324.7 716.3C324.8 716.6 324.8 716.8 325 717.1C320.2 727.8 316.2 739.7 313.6 756C308.8 786.6 311.8 821.2 312 822.6C312.2 824.7 313.9 826.3 316 826.3H343.2C344 826.3 345 826 345.6 825.5C351 821.5 351 799.1 345.6 762.4C342.6 742.3 337.6 727.9 333.6 717.2C336 711.9 338.5 706.9 341.4 701.5C343 698.3 344.9 694.8 346.7 691.1C352.9 678.7 355.8 665.8 357.9 652.3C359.6 651.2 361.2 649.9 363 648.8C379.5 637.4 395.2 626.7 395.2 610.8C395.2 599.7 386.9 582 377.1 561.3C376.4 560.2 375.9 559.1 375.3 557.8C377.9 549.3 381.1 541 385.1 532.5C397.2 506.5 412.3 466 417.4 438.6C419.2 429 421.1 424.1 423.8 422.3C427.3 420.2 434.3 422 445.2 424.7L449.4 425.7C468.9 430.7 511.9 500 526.8 526.3C527.6 527.7 529.4 528.4 531 528.2C532.6 528 533.9 526.6 534.2 525C534.2 524.7 539 497.9 545.2 480.8C548.4 472 558.6 458.1 567.6 445.9C571.6 440.6 575.2 435.6 578.2 431.1C576.8 428.2 575.6 425.1 574.7 421.8C571.5 427 566.3 434 561.3 440.8C551.6 454.2 541.5 468 537.8 477.9ZM337.7 763.5C343.3 801.3 341.7 814.3 340.7 818.1H319.7C319 808.5 317.8 781.1 321.6 757.1C323.5 745.4 326.1 736.2 329.1 727.9C332.3 737.4 335.5 748.8 337.7 763.5ZM339.5 687.6C337.7 691.3 336 694.6 334.2 698C332.6 701.1 331 704 329.6 707C325.1 694.5 324 687.3 332 675.6C336.1 669.5 342 664.1 348.6 659.1C346.9 669 344.1 678.4 339.5 687.6ZM387.3 610.7C387.3 622.1 373.9 631.6 359.5 641.5C359.6 639.9 359.9 638.3 360.1 636.7C360.9 629.7 361.8 622.3 363.1 614.6C365.7 599.8 368.1 584.6 372.1 569.4C380.1 586.5 387.2 602.4 387.3 610.7Z" fill="#330033"/>
<path d="M344.4 381.4C343.1 380.9 341.8 381.2 340.7 382C339.8 382.8 339.1 384.2 339.3 385.5C339.3 385.8 340.6 399.9 341.6 419L344.9 419.6C344.9 419.6 346.6 417.2 349.2 413.1C348.7 403.5 348.1 395.5 347.7 390.4C352.2 391.8 356.4 393.1 360.3 394.3C361.5 392.1 362.7 389.8 364 387.4C357.6 385.5 350.9 383.4 344.4 381.4Z" fill="#330033"/>
<path d="M451.5 82C451.5 67.1 449.7 61 444.9 59.7C439.9 58.2 435.9 63.4 432.7 68.5C432.5 68.8 432.4 69.3 432.2 69.6L421.6 108.7C420.6 108.8 419.8 108.8 419 109C408.6 110.1 403.4 110.7 382.4 114.9C382.2 114.9 382 115 381.9 115C381.4 118.2 380.9 121.2 380.3 123.8C381.4 123.6 382.6 123.3 383.8 123.1C391.3 121.6 396.7 120.5 401.1 119.8C408.2 117.2 417.2 114.6 428.9 112.5L439.5 72.8C440.7 71.2 441.5 70.1 442.1 69.3C442.6 71.2 443.1 75 443.1 82.4C443.1 95.2 444.1 106 444.5 110C467.5 106.8 476.9 104.7 482.6 101.8C471.8 104.2 461 106.2 452.6 106.7C452.3 102 451.5 92.7 451.5 82Z" fill="#330033"/>
<path d="M305.2 412.3C305.9 410.7 306.7 409.1 307.4 407.5C317.3 403.5 324.1 401.9 327.7 401.8C326.2 404.7 323.1 409.7 319.6 414.9L328.2 416.5C335.9 404.6 337.2 400.8 335.1 397.6C332.4 393.4 325.4 393.4 312.4 397.6C312.3 397.6 312 397.8 311.8 397.8C319 381.6 324.2 369.5 324.4 369.3C324.9 368.3 324.9 367.2 324.4 366.1C323.9 365 323.1 364.2 322 363.9C320.9 363.4 292.4 352.8 287.9 311.2C286.4 297.8 283.6 286.4 281 276.3C274.8 252.4 270 233.3 287.4 199.7C289.1 196.1 290.9 192.8 292.5 189.4C301.5 235 315.2 280.7 328.5 302.3C342.9 325.9 356.5 337.6 363.9 343.8C364.9 344.6 366 345.4 366.8 346.2C360.8 344.9 346.8 334.5 341 330.3C330.7 322.9 327.7 320.5 324.5 323.1C324 323.6 322 325.5 323.4 328.9C325.6 334.6 349.2 356.5 369.8 375C371 372.3 372.1 369.6 373.1 366.8C365.9 360.3 358.5 353.6 352 347.5C360.5 352.9 367.4 355.5 372 353.1C373 352.6 376 351 376.5 347.8C376.9 344.1 374.2 341.7 369.1 337.4C362 331.4 349.1 320.2 335.3 297.8C326.1 282.6 316.3 254.4 308.3 222.7C305.4 217 302.5 211.1 300 204.9C292.6 187.2 291.8 169 294.6 151.5C290.6 121 289.8 93.8001 294.2 78.5001C301.8 51.8001 314.4 22.5001 328.8 1.20007C305.3 19.4001 294.4 50.0001 285 86.1001C282 107.6 284.6 141.2 290.6 176C287.5 182.5 284.3 189.3 280.8 196C262.1 232.4 267.6 253.7 273.8 278.2C276.5 288.5 279.1 299.2 280.5 312C284.5 349.8 306.7 365.1 316 369.7C313.5 375.6 308 387.8 301.8 401.7C298.3 403.2 294.7 404.8 290.9 406.6C291.7 408.7 292.2 409.9 292.2 409.9L305.2 412.3Z" fill="#330033"/>
<path d="M633.7 250.5C633.5 255.1 633.5 259 633.5 261.7C633.5 266.9 632.9 272.9 632.1 279.6C630 298 627.1 323.2 636.9 357.3C637.5 359.4 638.3 361.5 639.1 363.7C642.6 373.2 646.9 384.9 643.1 416.6C643 417.4 643.1 418.2 643.6 419L659.6 448C639.9 432.4 620.2 417.7 602 406C600.9 405 599.9 404.1 598.8 403.2C600.6 401.7 602.3 400.3 604.1 399C612.1 392.6 619.1 387 621.7 381.9C627.8 369.9 621.4 301.3 610.8 265.3C607.6 254.2 604.7 246.1 602.3 239.5C596.6 223.2 595.8 220.3 602 213.1C612.7 200.8 589.3 163.3 563 132.1C564.1 137.3 565.2 142.8 566.2 148.5C571 154.6 575.4 160.8 579.4 166.7C597.3 193.8 598.1 205.3 596 207.7C586.6 218.6 589 225.4 594.9 242.1C597.1 248.7 600 256.7 603.2 267.6C614.7 307 618.5 370.7 614.7 378.4C612.9 381.9 605.7 387.7 599.3 392.8C597.8 394 596.4 395.1 595.1 396.2C594.8 395.5 594.2 395 593.7 394.4C595.9 391.1 595.8 385.8 595.4 378.3C594.4 366 585 346.5 574 328.9C573.6 333.4 573.3 338.1 573 342.8C580.6 356.2 586.6 369.9 587.2 378.8C587.4 380.9 587.7 386.7 587.4 389.1C585.7 387.8 583.6 386.3 581.5 384.9C578.9 383.1 575.1 380.5 571.6 377.8C571.6 380.9 571.6 384.1 571.6 387.3C572.5 388 573.5 388.7 574.4 389.3C574.1 389.1 573.6 389.1 573.3 389.1C572.7 388.8 572.1 388.5 571.6 388.3C571.6 391.3 571.7 394.5 571.8 397.7C576.1 399.9 580.6 402.2 585.2 405C581.5 408.7 578.8 412.4 577.8 415.9C577.4 417.3 576.3 419.4 574.7 422C575.6 425.3 576.8 428.4 578.2 431.3C581.8 426 584.4 421.6 585.4 418.3C586.2 415.9 588.8 412.7 592.3 409.5C593.9 410.5 595.6 411.6 597.4 412.7C603.3 418.1 613.2 426 629.7 438C646.8 450.4 664 462.5 669 465.9C673.6 469.7 677.7 473.1 681.3 476C686.1 476 688.9 475.8 688.9 475.8C688.9 475.8 688.5 474.3 687.7 471.4C683.8 468.1 679.8 464.9 675.9 461.6L651.1 416.6C655 383.9 650 370.8 646.5 361.3C645.7 359.2 644.9 357.3 644.4 355.4C635.1 322.9 637.8 299.5 639.9 280.8C640.7 274.1 641.3 267.9 641.3 262.1C641.3 259.3 641.5 255.5 641.5 251C641.7 240.7 641.9 226.7 641.6 211.8C639.3 197.6 635.6 181.4 630.8 164.3C634.6 191.6 634.1 229.2 633.7 250.5Z" fill="#330033"/>
<path d="M572.6 180.5C572.5 179.3 571.7 178.4 570.7 177.9L570.6 177.8C570.9 180.1 571.2 182.3 571.5 184.6C571.7 184.3 572 184 572.2 183.7C572.6 182.7 572.8 181.5 572.6 180.5Z" fill="#330033"/>
<path d="M621.1 132.1C612.4 105.8 601.8 78.6 590.7 53.7C593.6 85.3 604.3 103.4 614.6 120.9C616.7 124.5 618.9 128.2 621.1 132.1Z" fill="#330033"/>
<path d="M403 30C407.3 31.1 411.6 32.4 415.8 33.7C409.1 45.2 401.4 54.8 394.5 57.7C389.6 59.7 383 63.3 375.9 67.9C377.1 70.2 378.2 72.7 379.1 75.3C386.2 70.6 392.8 67 397.7 65.1C407.2 61.2 416.1 49.5 423.8 36.4C453.2 47.2 479 64.1 505.1 85.9C507.2 84.7 509.6 83.3 512.3 81.9C488.3 61.6 460.7 41.8 427.3 29.3C433.1 18.5 437.7 7.49998 440.7 0.0999756H432.5C429.3 7.99998 424.9 17.6 419.9 26.7C415.1 25.1 410.1 23.7 405 22.4C393.3 19.5 393.9 14.8 394.1 13.4C394.6 9.79997 397.6 5.19998 402.6 0.199976H391.8C387.3 6.19998 386.2 10.4 386 12.4C385.6 17.2 386.8 26 403 30Z" fill="#330033"/>
<path d="M577.7 258.3C578 280.4 576.5 299.2 574.9 318.7C577.9 307.1 580.6 296.4 582.4 289.9C584.7 281.8 584.8 270.9 577.7 258.3Z" fill="#330033"/>
</g>
<defs>
<clipPath id="clip0">
<rect width="742.7" height="1127.5" fill="white"/>
</clipPath>
</defs>
</svg>
